<?xml version="1.0" encoding="utf-8"?>
<!-- Generator: Adobe Illustrator 23.0.3, SVG Export Plug-In . SVG Version: 6.00 Build 0)  -->
<svg version="1.1" id="Layer_1" xmlns="http://www.w3.org/2000/svg" xmlns:xlink="http://www.w3.org/1999/xlink" x="0px" y="0px"
	 viewBox="0 0 512 512" style="enable-background:new 0 0 512 512;" xml:space="preserve">
<style type="text/css">
	.st0{fill:none;stroke:#1D1D1B;stroke-width:15;stroke-miterlimit:10;}
	.st1{fill:#1D1D1B;}
	.st2{fill:none;stroke:#1D1D1B;stroke-width:14;stroke-miterlimit:10;}
	.st3{fill:none;stroke:#1D1D1B;stroke-width:11;stroke-miterlimit:10;}
</style>
<g>
	<path class="st3" d="M256.82,27.72c0.78,0.16,1.56,0.43,2.35,0.47c5.55,0.23,11.11,0.26,16.65,0.66c5.9,0.42,11.8,0.99,17.65,1.81
		c8.64,1.22,17.18,3.01,25.52,5.67c9.72,3.1,18.97,7.19,27.16,13.39c7.84,5.94,13.92,13.24,17.32,22.61
		c1.71,4.72,2.46,9.59,2.28,14.6c-0.06,1.7-0.11,3.41-0.11,5.11c0,31.86-0.01,63.72,0.04,95.57c0.01,7.38-0.65,14.64-2.84,21.71
		c-4.62,14.9-14.29,25.35-28.34,31.85c-8.13,3.76-16.7,5.95-25.64,6.51c-3.54,0.22-7.1,0.36-10.65,0.36
		c-35.49,0.02-70.98-0.03-106.47,0.03c-10.57,0.02-20.71,2.2-30.15,7.12c-11.66,6.07-19.68,15.49-24.87,27.42
		c-3.27,7.52-5.24,15.4-5.88,23.58c-0.22,2.8-0.39,5.61-0.39,8.42c-0.03,16.52-0.01,33.04,0,49.57c0,0.87,0,1.74,0,2.79
		c-0.89,0.08-1.53,0.19-2.17,0.19c-12.22,0.01-24.45,0.2-36.67-0.05c-10.83-0.22-20.51-4.08-29.16-10.56
		c-8.02-6.02-14.08-13.72-18.85-22.47c-5.97-10.96-9.6-22.74-11.98-34.93c-1.66-8.51-2.77-17.08-3.2-25.74
		c-0.19-3.84-0.27-7.69-0.53-11.53c-0.11-1.6-0.58-3.17-0.89-4.75c0-1.63,0-3.26,0-4.89c0.31-1.43,0.78-2.85,0.89-4.29
		c0.4-5.53,0.6-11.08,1.02-16.61c0.62-8.35,2.07-16.57,4.15-24.68c2.99-11.7,7.3-22.86,14.35-32.76
		c12.79-17.96,30.01-27.71,52.32-27.72c51.4-0.02,102.8-0.01,154.2-0.02c0.78,0,1.57-0.11,2.5-0.18c0.05-1,0.12-1.8,0.12-2.6
		c0.01-3.26,0.02-6.52,0-9.78c-0.02-3.96,0.42-3.77-3.67-3.77c-34.37-0.01-68.73-0.02-103.1-0.02c-0.74,0-1.48,0.02-2.22-0.01
		c-1.46-0.07-1.6-0.22-1.67-1.72c-0.03-0.59-0.01-1.18-0.01-1.78c-0.02-16.59-0.02-33.18-0.07-49.77
		c-0.01-4.08,0.91-7.91,2.55-11.61c3-6.75,7.83-11.99,13.67-16.35c7.2-5.38,15.3-8.96,23.79-11.75c9.1-2.98,18.44-4.89,27.91-6.15
		c6.01-0.79,12.05-1.38,18.1-1.81c5.61-0.39,11.24-0.42,16.86-0.65c0.79-0.03,1.57-0.31,2.35-0.47
		C252.97,27.72,254.9,27.72,256.82,27.72z M213.43,82.87c0.1-9.71-7.18-20.34-20.21-20.42c-12.03-0.07-20.42,9.21-20.41,20.2
		c0.01,12.21,9.54,20.17,20.08,20.34C204.12,103.18,213.37,94.02,213.43,82.87z"/>
	<path class="st3" d="M255.18,484.28c-0.78-0.16-1.56-0.43-2.35-0.47c-5.55-0.23-11.11-0.26-16.65-0.66
		c-5.9-0.42-11.8-0.99-17.65-1.81c-8.64-1.22-17.18-3.01-25.52-5.67c-9.72-3.1-18.97-7.19-27.16-13.39
		c-7.84-5.94-13.92-13.24-17.32-22.61c-1.71-4.72-2.46-9.59-2.28-14.6c0.06-1.7,0.11-3.41,0.11-5.11c0-31.86,0.01-63.72-0.04-95.57
		c-0.01-7.38,0.65-14.64,2.84-21.71c4.62-14.9,14.29-25.35,28.34-31.85c8.13-3.76,16.7-5.95,25.64-6.51
		c3.54-0.22,7.1-0.36,10.65-0.36c35.49-0.02,70.98,0.03,106.47-0.03c10.57-0.02,20.71-2.2,30.15-7.12
		c11.66-6.07,19.68-15.49,24.87-27.42c3.27-7.52,5.24-15.4,5.88-23.58c0.22-2.8,0.39-5.61,0.39-8.42c0.03-16.52,0.01-33.04,0-49.57
		c0-0.87,0-1.74,0-2.79c0.89-0.08,1.53-0.19,2.17-0.19c12.22-0.01,24.45-0.2,36.67,0.05c10.83,0.22,20.51,4.08,29.16,10.56
		c8.02,6.02,14.08,13.72,18.85,22.47c5.97,10.96,9.6,22.74,11.98,34.93c1.66,8.51,2.77,17.08,3.2,25.74
		c0.19,3.84,0.27,7.69,0.53,11.53c0.11,1.6,0.58,3.17,0.89,4.75c0,1.63,0,3.26,0,4.89c-0.31,1.43-0.78,2.85-0.89,4.29
		c-0.4,5.53-0.6,11.08-1.02,16.61c-0.62,8.35-2.07,16.57-4.15,24.68c-2.99,11.7-7.3,22.86-14.35,32.76
		c-12.79,17.96-30.01,27.71-52.32,27.72c-51.4,0.02-102.8,0.01-154.2,0.02c-0.78,0-1.57,0.11-2.5,0.18c-0.05,1-0.12,1.8-0.12,2.6
		c-0.01,3.26-0.02,6.52,0,9.78c0.02,3.96-0.42,3.77,3.67,3.77c34.37,0.01,68.73,0.02,103.1,0.02c0.74,0,1.48-0.02,2.22,0.01
		c1.46,0.07,1.6,0.22,1.67,1.72c0.03,0.59,0.01,1.18,0.01,1.78c0.02,16.59,0.02,33.18,0.07,49.77c0.01,4.08-0.91,7.91-2.55,11.61
		c-3,6.75-7.83,11.99-13.67,16.35c-7.2,5.38-15.3,8.96-23.79,11.75c-9.1,2.98-18.44,4.89-27.91,6.15
		c-6.01,0.79-12.05,1.38-18.1,1.81c-5.61,0.39-11.24,0.42-16.86,0.65c-0.79,0.03-1.57,0.31-2.35,0.47
		C259.03,484.28,257.1,484.28,255.18,484.28z M298.57,429.13c-0.1,9.71,7.18,20.34,20.21,20.42c12.03,0.07,20.42-9.21,20.41-20.2
		c-0.01-12.21-9.54-20.17-20.08-20.34C307.88,408.82,298.63,417.98,298.57,429.13z"/>
</g>
</svg>
